# xmcd
#
# Track frame offsets: 
#        182
#        19695
#        40790
#        62910
#        82025
#        102560
#        121122
#        144837
#        166762
#        188832
#        207642
#        229417
#
# Disc length: 3308 seconds
#
# Revision: 5
# Processed by: cddbd v1.5.2PL0 Copyright (c) Steve Scherf et al.
# Submitted via: ExactAudioCopy v0.95a5
#
DISCID=a20cea0c
DTITLE=Diana Ross - k-Take Me Higher
DYEAR=1995
DGENRE=R&B
TTITLE0=Take Me Higher
TTITLE1=If You're Not Gonna Love Me Right
TTITLE2=I Never Loved A Man Before
TTITLE3=Swing It
TTITLE4=Keep It Right There
TTITLE5=Don't Stop
TTITLE6=Gone
TTITLE7=I Thought That We Were Still In Love
TTITLE8=Voice Of The Heart
TTITLE9=Only Love Can Conquer All
TTITLE10=I Will Survive
TTITLE11=If We Hold On Together
EXTD=
EXTT0=
EXTT1=
EXTT2=
EXTT3=
EXTT4=
EXTT5=
EXTT6=
EXTT7=
EXTT8=
EXTT9=
EXTT10=
EXTT11=
PLAYORDER=
